Coordinates
version=1
nRows=7
nColumns=40
inDegrees=yes

Units are S.I. units (second, meters, Newtons, ...)
If the header above contains a line with 'inDegrees', this indicates whether rotational values are in degrees (yes) or radians (no).

endheader
time	pelvis_tilt	pelvis_list	pelvis_rotation	pelvis_tx	pelvis_ty	pelvis_tz	hip_flexion_r	hip_adduction_r	hip_rotation_r	knee_angle_r	knee_angle_r_beta	ankle_angle_r	subtalar_angle_r	mtp_angle_r	hip_flexion_l	hip_adduction_l	hip_rotation_l	knee_angle_l	knee_angle_l_beta	ankle_angle_l	subtalar_angle_l	mtp_angle_l	lumbar_extension	lumbar_bending	lumbar_rotation	arm_flex_r	arm_add_r	arm_rot_r	elbow_flex_r	pro_sup_r	wrist_flex_r	wrist_dev_r	arm_flex_l	arm_add_l	arm_rot_l	elbow_flex_l	pro_sup_l	wrist_flex_l	wrist_dev_l
      3.15000000	      0.28964129	     -4.27143718	      4.51214091	     -0.36095131	      0.76178468	     -1.06341023	     53.32937312	     -0.01467117	     -6.00958856	      0.79455130	      0.01386754	     -7.54146233	      0.00000000	      0.00000000	     54.48822756	     -1.21016801	     -1.65894490	     97.60788713	      1.70357901	     29.99233562	      0.00000000	      0.00000000	    -27.17675703	      0.01357876	      3.00891782	     89.96289338	     -2.63257771	      8.60611790	     47.20590764	     72.65345914	      0.00000000	      0.00000000	     89.97071016	      1.74115936	     18.47393735	     48.81544895	     71.78998384	      0.00000000	      0.00000000
      3.15500000	      0.26062009	     -4.29092195	      4.48342800	     -0.36086236	      0.76172635	     -1.06334026	     53.34630967	      0.03576492	     -6.03709149	      0.78489612	      0.01369902	     -7.54354853	      0.00000000	      0.00000000	     54.51659154	     -1.31896266	     -1.72986575	     97.61868290	      1.70376743	     29.96951058	      0.00000000	      0.00000000	    -27.12928747	      0.02317971	      3.12803784	     89.96288859	     -2.60278914	      8.64330889	     47.25830176	     70.86103507	      0.00000000	      0.00000000	     89.97070207	      1.79949453	     18.58447378	     48.85726731	     69.96160338	      0.00000000	      0.00000000
      3.16000000	      0.24930926	     -4.26375281	      4.51083023	     -0.36071795	      0.76186342	     -1.06347393	     53.33640383	     -0.03808710	     -6.36973601	      0.82926307	      0.01447337	     -7.37906250	      0.00000000	      0.00000000	     54.50481109	     -1.29471119	     -1.75919246	     97.60523651	      1.70353274	     29.91628551	      0.00000000	      0.00000000	    -27.10698104	      0.00571710	      3.16809243	     89.96298558	     -2.61983190	      7.60650636	     47.01608965	     80.28459041	      0.00000000	      0.00000000	     89.97078201	      1.84977645	     17.86005140	     48.59250170	     78.10963003	      0.00000000	      0.00000000
      3.16500000	      0.25913644	     -4.27602828	      4.52203633	     -0.36068891	      0.76189387	     -1.06357372	     53.30986819	     -0.03080711	     -6.37895963	      0.82742362	      0.01444127	     -7.41631320	      0.00000000	      0.00000000	     54.50581524	     -1.31392381	     -1.76786651	     97.61875074	      1.70376861	     29.86047585	      0.00000000	      0.00000000	    -27.10711814	      0.04069746	      3.21207908	     89.96304700	     -2.58623710	      7.72963942	     47.08761743	     78.40015771	      0.00000000	      0.00000000	     89.97081069	      1.85877254	     17.97414041	     48.65957858	     76.56771708	      0.00000000	      0.00000000
      3.17000000	      0.24177518	     -4.28586270	      4.54746367	     -0.36056772	      0.76206378	     -1.06365576	     53.29997161	     -0.03498665	     -6.32196608	      0.84610371	      0.01476730	     -7.50133849	      0.00000000	      0.00000000	     54.50765324	     -1.31139284	     -1.74961268	     97.59795860	      1.70340572	     29.83447055	      0.00000000	      0.00000000	    -27.06745535	      0.06181879	      3.21583901	     89.96305771	     -2.57857063	      7.95788554	     47.10912056	     76.36672072	      0.00000000	      0.00000000	     89.97084034	      1.86183696	     18.13130267	     48.65039297	     74.77158391	      0.00000000	      0.00000000
      3.17500000	      0.20775735	     -4.29902143	      4.50437870	     -0.36041766	      0.76221079	     -1.06361358	     53.31668545	      0.03558622	     -6.36994478	      0.84124080	      0.01468242	     -7.72211934	      0.00000000	      0.00000000	     54.51572955	     -1.39580412	     -1.81080786	     97.58166690	      1.70312138	     29.79571261	      0.00000000	      0.00000000	    -27.02611278	      0.06095518	      3.34857366	     89.96312734	     -2.61784404	      7.49264185	     47.07594987	     80.15426142	      0.00000000	      0.00000000	     89.97084088	      1.90408449	     17.79379273	     48.61837911	     78.52556719	      0.00000000	      0.00000000
      3.18000000	      0.19750082	     -4.33882499	      4.47848102	     -0.36032193	      0.76230725	     -1.06356531	     53.30751975	      0.10442467	     -6.33560884	      0.84956354	      0.01482768	     -7.74124126	      0.00000000	      0.00000000	     54.51869979	     -1.47498966	     -1.81209958	     97.57965728	      1.70308630	     29.82257211	      0.00000000	      0.00000000	    -26.96992815	      0.10198290	      3.42899923	     89.96314122	     -2.61836607	      8.08466608	     47.11868815	     75.46952407	      0.00000000	      0.00000000	     89.97078888	      1.89235426	     18.21314364	     48.68261113	     74.08945621	      0.00000000	      0.00000000
